<svg id="Layer_1" data-name="Layer 1" xmlns="http://www.w3.org/2000/svg" viewBox="0 0 489.97 59.68"><defs><style>.cls-1{fill:#fff;}</style></defs><title>Artboard 1</title><path class="cls-1" d="M30.64,38.74h-8.9L17.56,57.91H6.17L18,4.4H40.83c8.67,0,16.53,5.78,16.53,15.08A18.51,18.51,0,0,1,42.12,38.09L49.5,57.91H36.9ZM45.41,20.6a6.53,6.53,0,0,0-6.63-6.43H27.19L24,29H35.86C41.88,29,45.41,25.42,45.41,20.6Z"/><path class="cls-1" d="M91.38,19.16h10.27L93.06,57.91H82.79l1.12-4.81c-3.29,3.85-7,5.78-11.63,5.78-8.83,0-14.76-5.78-14.76-16C57.52,31.11,64.74,18.2,78,18.2a14.63,14.63,0,0,1,12.36,6.1ZM76.77,49.81a11.52,11.52,0,0,0,8.91-4.57l3-13.48a10.71,10.71,0,0,0-9.07-4.49c-6.66,0-11.39,6.34-11.39,13.48C68.19,46.28,71.88,49.81,76.77,49.81Z"/><path class="cls-1" d="M107.5,47.8,111.83,28h-6.42l2-8.83h6.42l2.33-10.59h10.27L124.1,19.17H132L129.89,28H122l-3.69,16.85a10.88,10.88,0,0,0-.16,1.6c0,2.09,1.2,3.37,3.77,3.37a5.31,5.31,0,0,0,2.81-.8l.4,8.18a11.88,11.88,0,0,1-6.42,1.68c-6.9,0-11.55-2.65-11.55-8.42A12.29,12.29,0,0,1,107.5,47.8Z"/><path class="cls-1" d="M154.2,18.2c9.87,0,17.41,6.5,17.41,17.33a25.33,25.33,0,0,1-.8,6.26H142v1c0,3.29,3.45,8,10.59,8,3.37,0,7.38-1,9.79-2.89l3.21,7a25.21,25.21,0,0,1-13.72,4c-12.2,0-20.06-6.58-20.06-17.41C131.81,28.87,141.28,18.2,154.2,18.2Zm8.26,15.89c0-3.85-2.73-7.78-8.91-7.78A11.07,11.07,0,0,0,143,34.88h19.42Z"/><path class="cls-1" d="M213.16,4.4h10.27L211.56,57.91H201.29l1.12-4.81c-3.29,3.85-7,5.78-11.63,5.78-8.83,0-14.76-5.78-14.76-16,0-11.71,7.22-24.63,20.46-24.63a14.63,14.63,0,0,1,12.36,6.1ZM195.27,49.81a11.52,11.52,0,0,0,8.91-4.57l3-13.48a10.71,10.71,0,0,0-9.07-4.49c-6.66,0-11.39,6.34-11.39,13.48C186.69,46.28,190.38,49.81,195.27,49.81Z"/><path class="cls-1" d="M245.19,23.29h-4.44l-4.4,7.9H232l4.44-7.9h-4.54l2.06-3.79h4.54l4.3-7.76h-4.54l2-3.74h4.68l4.4-8h4.4l-4.4,8h4.4L258,0h4.44L258,8h4.58l-2,3.74H255.9l-4.3,7.76h4.72l-2,3.79H249.5l-4.35,7.9h-4.44Zm2-11.55-4.3,7.76h4.4l4.3-7.76Z"/><path class="cls-1" d="M279.35,19.08l-10.83,9.07-5-6.82L284.08,4.4H294L282.24,57.91H270.85Z"/><path class="cls-1" d="M320.2,16.92h-2.39l.45-2h2.39l.24-1.11c.66-3,2.18-4.7,4.73-4.7a4.65,4.65,0,0,1,2.6.69l-.87,1.62A2.51,2.51,0,0,0,325.8,11c-1.47,0-2.27,1-2.66,2.84l-.24,1.11h2.93l-.45,2h-2.93L319.7,29.39h-2.24Z"/><path class="cls-1" d="M333.9,14.58c4.1,0,6.61,2.6,6.61,6.43,0,4.55-3.41,8.73-8,8.73-4.13,0-6.61-2.57-6.61-6.4C325.85,18.8,329.23,14.58,333.9,14.58Zm-.06,2c-3.29,0-5.62,3.26-5.62,6.67,0,2.72,1.58,4.49,4.31,4.49,3.29,0,5.62-3.26,5.62-6.67,0-2.72-1.59-4.48-4.31-4.48Z"/><path class="cls-1" d="M345.59,14.94h2.24l-.51,2.21a6.44,6.44,0,0,1,5.38-2.51l-.51,2.3a4.46,4.46,0,0,0-1.14-.12,5.63,5.63,0,0,0-4.19,2.36l-2.24,10.2h-2.24Z"/><path class="cls-1" d="M372.54,9.11a8.66,8.66,0,0,1,7.87,4.37l-2.24,1a6.46,6.46,0,0,0-6-3.2c-4.4,0-8.43,4-8.43,9.57,0,4,2.63,6.64,6.73,6.64a7.72,7.72,0,0,0,5.23-2.12l.93-4.07h-6.88l.48-2.21h9.36L378,26.46a10.54,10.54,0,0,1-7.66,3.29c-5.44,0-9.21-3.56-9.21-8.73C361.15,14.11,366.26,9.11,372.54,9.11Z"/><path class="cls-1" d="M384.51,14.94h2.24l-3.2,14.45h-2.24Zm2.12-5.44A1.34,1.34,0,0,1,388,10.81h0a1.74,1.74,0,0,1-1.71,1.7,1.34,1.34,0,0,1-1.37-1.31h0A1.72,1.72,0,0,1,386.63,9.5Z"/><path class="cls-1" d="M391.42,16.92H389l.45-2h2.39l.24-1.11c.66-3,2.18-4.7,4.73-4.7a4.65,4.65,0,0,1,2.6.69l-.87,1.62A2.51,2.51,0,0,0,397,11c-1.47,0-2.27,1-2.66,2.84l-.24,1.11H397l-.45,2h-2.93l-2.75,12.47h-2.24Z"/><path class="cls-1" d="M397.64,26.28l2.09-9.39h-2.39l.45-1.94h2.39l.87-3.95h2.24l-.87,3.95h2.93l-.45,1.94H402l-2,8.91a3.75,3.75,0,0,0-.06.6c0,.87.48,1.35,1.44,1.35a2.18,2.18,0,0,0,1.38-.48l.27,1.79a3.58,3.58,0,0,1-2.18.69c-2,0-3.29-.84-3.29-2.63A5.36,5.36,0,0,1,397.64,26.28Z"/><path class="cls-1" d="M421.63,14.58c4.1,0,6.61,2.6,6.61,6.43,0,4.55-3.41,8.73-8,8.73-4.13,0-6.61-2.57-6.61-6.4C413.58,18.8,417,14.58,421.63,14.58Zm-.06,2c-3.29,0-5.62,3.26-5.62,6.67,0,2.72,1.58,4.49,4.31,4.49,3.29,0,5.62-3.26,5.62-6.67,0-2.72-1.59-4.48-4.31-4.48Z"/><path class="cls-1" d="M433.51,16.92h-2.39l.45-2H434l.24-1.11c.66-3,2.18-4.7,4.73-4.7a4.65,4.65,0,0,1,2.6.69l-.87,1.62a2.51,2.51,0,0,0-1.6-.42c-1.47,0-2.27,1-2.66,2.84l-.24,1.11h2.93l-.45,2h-2.93L433,29.39h-2.24Z"/><path class="cls-1" d="M447.45,26.28l2.09-9.39h-2.39l.45-1.94H450l.87-3.95h2.24l-.87,3.95h2.93l-.45,1.94h-2.93l-2,8.91a3.75,3.75,0,0,0-.06.6c0,.87.48,1.35,1.44,1.35a2.18,2.18,0,0,0,1.38-.48l.27,1.79a3.58,3.58,0,0,1-2.18.69c-2,0-3.29-.84-3.29-2.63A5.36,5.36,0,0,1,447.45,26.28Z"/><path class="cls-1" d="M467,19.91a6.31,6.31,0,0,0,.18-1c0-1.67-1.29-2.33-3-2.33a6.71,6.71,0,0,0-4.46,2.3l-2.33,10.5H455.1l4.4-20h2.24L460.07,17a7.77,7.77,0,0,1,5.11-2.45c2.54,0,4.31,1.26,4.31,3.59a6.1,6.1,0,0,1-.18,1.2l-2.18,10h-2.24Z"/><path class="cls-1" d="M480.32,14.58a5.94,5.94,0,0,1,6.22,6.31,11.13,11.13,0,0,1-.24,2H474.51v.69c0,2.24,1.65,4.31,4.91,4.31a6.89,6.89,0,0,0,4.16-1.41l.75,1.56a8.49,8.49,0,0,1-5,1.7c-4.4,0-7.06-2.54-7.06-6.4C472.18,18.56,475.74,14.58,480.32,14.58Zm4.19,6.1a4,4,0,0,0-4.4-4.25,5.73,5.73,0,0,0-5.35,4.82h9.69a3.29,3.29,0,0,0,0-.56Z"/><path class="cls-1" d="M332.37,42.36l-10.53,17h-1l-3-17-3.71,17H311.6l4.4-20h3.44l2.78,15.55,9.63-15.55h3.68l-4.4,20h-2.48Z"/><path class="cls-1" d="M344.31,44.51c4.1,0,6.61,2.6,6.61,6.43,0,4.55-3.41,8.73-8,8.73-4.13,0-6.61-2.57-6.61-6.4C336.26,48.73,339.64,44.51,344.31,44.51Zm-.06,2c-3.29,0-5.62,3.26-5.62,6.67,0,2.72,1.58,4.49,4.31,4.49,3.29,0,5.62-3.26,5.62-6.67,0-2.72-1.56-4.48-4.31-4.48Z"/><path class="cls-1" d="M364.65,49.84a4.85,4.85,0,0,0,.18-1c0-1.67-1.29-2.33-2.84-2.33a6.7,6.7,0,0,0-4.61,2.27L355,59.32h-2.2L356,44.87h2.24L357.77,47a7.77,7.77,0,0,1,5.11-2.45c2.54,0,4.31,1.26,4.31,3.59a5.8,5.8,0,0,1-.18,1.2l-2.21,10h-2.24Z"/><path class="cls-1" d="M370.42,56.21l2.09-9.39h-2.39l.45-1.94H373l.87-4h2.24l-.87,4h2.93l-.45,1.94h-2.93l-2,8.91a3.75,3.75,0,0,0-.06.6c0,.87.48,1.35,1.44,1.35a2.18,2.18,0,0,0,1.38-.48l.25,1.8a3.58,3.58,0,0,1-2.18.69c-2,0-3.29-.84-3.29-2.63A5.36,5.36,0,0,1,370.42,56.21Z"/><path class="cls-1" d="M389.92,49.84a6.31,6.31,0,0,0,.18-1c0-1.67-1.29-2.33-3-2.33a6.71,6.71,0,0,0-4.46,2.3l-2.33,10.5h-2.24l4.4-20h2.24L383,47a7.77,7.77,0,0,1,5.11-2.45c2.54,0,4.31,1.26,4.31,3.59a6.11,6.11,0,0,1-.18,1.2l-2.18,10h-2.24Z"/><path class="cls-1" d="M414.69,39c4,0,6.76,1.85,8.13,4.7l-2.36.93a6.26,6.26,0,0,0-5.92-3.41c-4.28,0-8.43,3.8-8.43,9.57a6.3,6.3,0,0,0,6.73,6.64,7.87,7.87,0,0,0,5.35-2.27L420,56.57a10,10,0,0,1-7.33,3.11c-5.29,0-9.21-3.44-9.21-8.73C403.48,43.74,408.92,39,414.69,39Z"/><path class="cls-1" d="M426.93,39.37h2.24l-4.4,20h-2.24Z"/><path class="cls-1" d="M432.61,54.32a5.57,5.57,0,0,0-.15,1c0,1.67,1.29,2.33,3,2.33a6.94,6.94,0,0,0,4.46-2.27l2.3-10.53h2.24l-3.2,14.45H439l.48-2.09a7.7,7.7,0,0,1-5.08,2.45c-2.57,0-4.31-1.26-4.31-3.59a8.77,8.77,0,0,1,.15-1.2l2.21-10h2.24Z"/><path class="cls-1" d="M448,59.32h-2.24l4.4-20h2.24l-1.67,7.57a6.09,6.09,0,0,1,4.79-2.42c3.29,0,5.59,2.18,5.59,6,0,4.7-2.93,9.21-7.57,9.21a5.68,5.68,0,0,1-5-2.63Zm6.7-12.8A5.67,5.67,0,0,0,450.26,49l-1.41,6.34a4.83,4.83,0,0,0,4.37,2.33c3.29,0,5.5-3.32,5.5-6.79,0-2.69-1.64-4.36-4-4.36Z"/><path class="cls-1" d="M463.81,55.61a6.08,6.08,0,0,0,4.82,2.24c2.06,0,3.32-1.23,3.32-2.54s-1.53-1.82-3.2-2.48c-2.06-.81-4.4-1.67-4.4-3.92s1.94-4.4,5.47-4.4a6.92,6.92,0,0,1,5.5,2.36L474,48.34a5.37,5.37,0,0,0-4.34-2c-1.94,0-3.11,1-3.11,2.21s1.47,1.71,3.08,2.33c2.09.78,4.52,1.67,4.52,4.07s-2.06,4.72-5.68,4.72a7.58,7.58,0,0,1-6.1-2.54Z"/><path class="cls-1" d="M478.5,56.33a1.51,1.51,0,0,1,1.5,1.52h0a1.79,1.79,0,0,1-1.79,1.76,1.49,1.49,0,0,1-1.53-1.45s0,0,0-.05A1.83,1.83,0,0,1,478.5,56.33Zm2.54-17h2.81l-3.65,14.4h-1.88Z"/></svg>